<svg width="56" height="56" viewBox="0 0 56 56" fill="none" xmlns="http://www.w3.org/2000/svg">
<rect width="56" height="56" rx="28" fill="#00CCBB"/>
<path d="M23.6058 36.24C22.4191 36.24 21.3791 35.92 20.4858 35.28C19.5924 34.6267 18.8924 33.7267 18.3858 32.58C17.8924 31.42 17.6458 30.0733 17.6458 28.54C17.6458 26.9933 17.8924 25.6467 18.3858 24.5C18.8924 23.3533 19.5858 22.46 20.4658 21.82C21.3591 21.18 22.3991 20.86 23.5858 20.86C24.7724 20.86 25.8058 21.18 26.6858 21.82C27.5791 22.46 28.2724 23.36 28.7658 24.52C29.2724 25.6667 29.5258 27.0067 29.5258 28.54C29.5258 30.0733 29.2791 31.42 28.7858 32.58C28.2924 33.7267 27.5991 34.6267 26.7058 35.28C25.8258 35.92 24.7924 36.24 23.6058 36.24ZM23.6058 34.08C24.3391 34.08 24.9724 33.8533 25.5058 33.4C26.0391 32.9467 26.4524 32.3067 26.7458 31.48C27.0391 30.6533 27.1858 29.6733 27.1858 28.54C27.1858 27.4067 27.0391 26.4267 26.7458 25.6C26.4524 24.7733 26.0391 24.1333 25.5058 23.68C24.9724 23.2267 24.3324 23 23.5858 23C22.8524 23 22.2191 23.2267 21.6858 23.68C21.1524 24.1333 20.7391 24.7733 20.4458 25.6C20.1524 26.4267 20.0058 27.4067 20.0058 28.54C20.0058 29.66 20.1524 30.64 20.4458 31.48C20.7391 32.3067 21.1524 32.9467 21.6858 33.4C22.2324 33.8533 22.8724 34.08 23.6058 34.08ZM34.2622 36V23.1H31.4022V21.1H36.6022V36H34.2622Z" fill="white"/>
</svg>
