<svg width="56" height="56" viewBox="0 0 56 56" fill="none" xmlns="http://www.w3.org/2000/svg">
<rect width="56" height="56" rx="28" fill="#00CCBB"/>
<path d="M21.5452 36.24C20.3586 36.24 19.3186 35.92 18.4252 35.28C17.5319 34.6267 16.8319 33.7267 16.3252 32.58C15.8319 31.42 15.5852 30.0733 15.5852 28.54C15.5852 26.9933 15.8319 25.6467 16.3252 24.5C16.8319 23.3533 17.5252 22.46 18.4052 21.82C19.2986 21.18 20.3386 20.86 21.5252 20.86C22.7119 20.86 23.7452 21.18 24.6252 21.82C25.5186 22.46 26.2119 23.36 26.7052 24.52C27.2119 25.6667 27.4652 27.0067 27.4652 28.54C27.4652 30.0733 27.2186 31.42 26.7252 32.58C26.2319 33.7267 25.5386 34.6267 24.6452 35.28C23.7652 35.92 22.7319 36.24 21.5452 36.24ZM21.5452 34.08C22.2786 34.08 22.9119 33.8533 23.4452 33.4C23.9786 32.9467 24.3919 32.3067 24.6852 31.48C24.9786 30.6533 25.1252 29.6733 25.1252 28.54C25.1252 27.4067 24.9786 26.4267 24.6852 25.6C24.3919 24.7733 23.9786 24.1333 23.4452 23.68C22.9119 23.2267 22.2719 23 21.5252 23C20.7919 23 20.1586 23.2267 19.6252 23.68C19.0919 24.1333 18.6786 24.7733 18.3852 25.6C18.0919 26.4267 17.9452 27.4067 17.9452 28.54C17.9452 29.66 18.0919 30.64 18.3852 31.48C18.6786 32.3067 19.0919 32.9467 19.6252 33.4C20.1719 33.8533 20.8119 34.08 21.5452 34.08ZM29.6816 36V34.3L33.7616 29.94C34.5616 29.0867 35.1883 28.4 35.6416 27.88C36.1083 27.3467 36.4416 26.88 36.6416 26.48C36.855 26.08 36.9616 25.66 36.9616 25.22C36.9616 24.5 36.7416 23.9467 36.3016 23.56C35.8616 23.16 35.295 22.96 34.6016 22.96C33.8816 22.96 33.2616 23.1667 32.7416 23.58C32.2216 23.98 31.8616 24.5667 31.6616 25.34L29.5816 24.74C29.7416 23.9533 30.0616 23.2733 30.5416 22.7C31.0216 22.1133 31.6083 21.66 32.3016 21.34C33.0083 21.02 33.7683 20.86 34.5816 20.86C35.5283 20.86 36.355 21.04 37.0616 21.4C37.7683 21.7467 38.315 22.2333 38.7016 22.86C39.1016 23.4867 39.3016 24.2133 39.3016 25.04C39.3016 25.5867 39.195 26.12 38.9816 26.64C38.7816 27.1467 38.4683 27.6867 38.0416 28.26C37.615 28.82 37.0683 29.4533 36.4016 30.16L32.8016 34H39.5816V36H29.6816Z" fill="white"/>
</svg>
