<svg width="261" height="261" viewBox="0 0 261 261" fill="none" xmlns="http://www.w3.org/2000/svg">
<g opacity="0.5">
<path d="M122.618 40.4851H131.058L143.718 43.2984L152.158 46.815L160.598 53.145L165.521 58.0683L171.147 62.9915L178.884 73.5414L186.621 86.2013L195.764 104.488L200.687 117.148L203.5 131.214V223.35L206.281 229.875L207.687 227.062L214.017 220.732L218.941 214.402L225.974 203.852L230.897 195.412L234.041 188.887L243.59 181.15L242.183 188.184L238.667 197.327L232.337 208.58L219.776 223.611L216.16 228.273L209.83 234.603L206.281 237.5L204 239L195.5 244.45L185 249.5L171.5 254L165.521 255.703L154.268 258.516L140.201 260.626H131.761H127.541H116.288L101.518 257.813L88.1549 252.89L76.1984 246.56H85.3416L72 247.5L66 244.5L61.4285 242L53.6919 237.416L50.8786 236.01L41.0321 227.57L32.5921 218.427L25.5589 208.58L19.9323 198.734L15.7123 189.59L14.3057 183.964V181.15L18.7165 183.964L27.302 193.003L34.7021 200.843L41.7354 210.69L50.1753 219.833L53.6919 223.35V119.961L56.5052 109.411L60.0219 100.971L65.6485 89.7179L71.9784 78.4647L79.0117 68.6182L85.3416 60.8816L91.6716 54.5516L100.111 48.2217L108.551 44.0017L117.695 41.1884L122.618 40.4851Z" fill="#00CCBB"/>
<path d="M143.014 80.575L146.531 81.9816L154.267 87.6082L163.411 95.3448L167.631 100.971L171.851 109.411L174.664 117.851L176.071 127.698V138.951L171.147 150.204L166.927 154.424L164.817 164.271L162.004 170.601L157.081 174.821L156.377 164.271L151.454 158.644L144.421 155.128L141.608 153.721C141.608 153.721 142.774 151.008 143.207 149.217C143.658 147.348 143.658 146.447 143.207 144.578C142.774 142.787 142.553 142.165 141.146 140.974C140.017 140.019 138.091 138.951 138.091 138.951V122.071L140.904 116.445L145.827 112.225L149.344 110.818H154.971L161.301 113.631L164.817 117.148L166.224 118.555L169.037 119.258L167.631 113.631L163.411 108.708L156.377 105.895H148.641L142.311 108.708L138.794 111.521L135.278 118.555L134.574 142.468C134.574 142.468 137.002 142.874 138.091 143.874C138.82 144.544 139.237 145.029 139.498 145.984C139.866 147.335 138.794 149.501 138.794 149.501L134.574 152.314H126.134C126.134 152.314 121.315 150.719 120.508 148.094C120.104 146.782 120.015 145.859 120.508 144.578C121.066 143.127 123.321 141.764 123.321 141.764L124.024 139.654V119.961L121.211 114.335L118.398 110.818L111.365 107.301L108.551 106.598H101.518L94.4847 109.411L90.968 113.631L88.8581 119.258L93.078 117.851L95.8913 114.335L100.815 111.521H108.551L115.584 115.038L119.804 119.961L120.508 121.368V139.654C120.508 139.654 117.86 141.434 116.991 143.171C116.123 144.908 115.839 146.205 116.288 148.094C116.658 149.652 117.359 150.392 118.398 151.611C118.902 152.202 119.804 153.018 119.804 153.018V154.424L111.365 158.644L105.035 163.567L103.628 164.974L102.925 174.117L100.111 172.711L96.5946 167.084L94.4847 162.161L93.078 155.831L87.4514 149.501L83.2314 138.248V127.698L86.0448 112.225L88.1547 105.191L90.968 100.971L91.6714 100.268L110.661 97.4548L123.321 93.9382L134.574 88.3115L142.311 81.9816L143.014 80.575Z" fill="white"/>
<path d="M88.1543 189.59L90.9676 190.997L98.7042 200.14L109.254 208.58L113.474 210.69L116.991 211.393H140.2L147.234 209.283L154.97 204.36L163.41 196.624L168.333 190.997L170.443 190.294V242.34L155.674 247.263L143.014 250.076H119.804L107.847 247.966L89.5609 242.34L88.1543 241.636V189.59Z" fill="white"/>
<path d="M109.255 168.49H151.454V176.227L148.641 183.964L144.421 188.887H136.685V180.447L143.718 176.227L145.828 172.71H114.178L116.991 176.93L121.211 179.744L124.025 180.447V187.48L117.695 188.887L114.178 189.59L109.255 181.15V168.49Z" fill="white"/>
<path d="M71.9783 127.698L76.9016 128.401L79.0116 131.214L79.7149 149.501L81.1216 157.237V161.457L77.605 160.754L74.7916 157.237L73.385 150.908L70.5717 145.281L69.165 136.841V130.511L71.9783 127.698Z" fill="white"/>
<path d="M183.807 127.698L186.62 129.104V135.434L183.807 155.831L180.994 159.347H178.884V135.434L182.4 128.401L183.807 127.698Z" fill="white"/>
<path d="M150.048 115.741L156.378 116.445L160.598 119.961V122.774H143.718L144.421 119.961L147.938 116.445L150.048 115.741Z" fill="#00CCBB" fill-opacity="0.733333"/>
<path d="M103.629 116.445H109.255L113.475 118.555L114.882 119.961V122.775H98.002L98.7053 119.258L103.629 116.445Z" fill="#00CCBB" fill-opacity="0.733333"/>
<circle cx="130.5" cy="130.5" r="113" stroke="#00CCBB" stroke-width="35"/>
</g>
</svg>
