<svg width="367" height="237" viewBox="0 0 367 237" fill="none" xmlns="http://www.w3.org/2000/svg">
<rect width="367" height="237" rx="24" fill="#00CCBB"/>
<path d="M31 47C31 40.3726 36.3726 35 43 35H324C330.627 35 336 40.3726 336 47V237H31V47Z" fill="white"/>
<rect x="55" y="64" width="94" height="23" rx="4" fill="#F0F0F0"/>
<rect x="290" y="64" width="23" height="23" rx="4" fill="#F0F0F0"/>
<rect x="55" y="108" width="258" height="51" rx="4" fill="#BDF1EC"/>
<path d="M180.705 134.462C181.155 134.243 181.674 134.211 182.147 134.374C182.62 134.537 183.01 134.881 183.229 135.331L186.537 142.118C186.757 142.568 186.788 143.086 186.625 143.56C186.462 144.033 186.118 144.422 185.668 144.641C185.218 144.861 184.699 144.892 184.226 144.729C183.753 144.566 183.364 144.222 183.144 143.772L179.836 136.986C179.616 136.536 179.585 136.017 179.748 135.544C179.911 135.07 180.255 134.681 180.705 134.462ZM170.169 146.36C170.25 146.125 170.376 145.908 170.54 145.722C170.705 145.536 170.904 145.385 171.127 145.276C171.351 145.167 171.593 145.103 171.841 145.088C172.089 145.073 172.337 145.107 172.572 145.189L179.71 147.651C179.948 147.728 180.169 147.853 180.359 148.016C180.549 148.18 180.704 148.38 180.816 148.604C180.928 148.828 180.994 149.073 181.01 149.323C181.026 149.573 180.993 149.824 180.911 150.061C180.829 150.298 180.701 150.516 180.534 150.703C180.367 150.89 180.165 151.042 179.939 151.149C179.713 151.257 179.467 151.319 179.217 151.331C178.966 151.343 178.716 151.305 178.481 151.219L171.344 148.76C170.871 148.597 170.482 148.253 170.262 147.803C170.043 147.353 170.011 146.835 170.174 146.362M196.573 133.492C196.808 133.572 197.024 133.699 197.21 133.863C197.396 134.027 197.548 134.227 197.657 134.45C197.766 134.673 197.829 134.916 197.844 135.163C197.859 135.411 197.825 135.66 197.744 135.894L195.273 143.033C195.196 143.271 195.072 143.492 194.908 143.681C194.744 143.871 194.545 144.027 194.32 144.138C194.096 144.25 193.852 144.316 193.602 144.332C193.351 144.349 193.101 144.315 192.864 144.234C192.627 144.152 192.408 144.024 192.221 143.857C192.034 143.69 191.883 143.488 191.775 143.261C191.667 143.035 191.605 142.79 191.593 142.539C191.581 142.289 191.619 142.039 191.705 141.803L194.164 134.666C194.327 134.193 194.671 133.804 195.121 133.585C195.571 133.366 196.09 133.334 196.563 133.497M171.141 162.222C170.922 161.772 170.89 161.254 171.053 160.78C171.216 160.307 171.561 159.918 172.011 159.699L178.797 156.39C179.247 156.171 179.765 156.139 180.239 156.302C180.712 156.465 181.101 156.81 181.32 157.26C181.54 157.71 181.571 158.228 181.408 158.702C181.245 159.175 180.901 159.564 180.451 159.783L173.665 163.092C173.215 163.311 172.696 163.343 172.223 163.18C171.75 163.017 171.36 162.672 171.141 162.222Z" fill="#0B998D"/>
<rect x="55" y="173" width="258" height="51" rx="4" fill="#F0F0F0"/>
<path fill-rule="evenodd" clip-rule="evenodd" d="M191.268 148.749C188.473 147.817 185.818 150.473 186.746 153.265L196.844 183.556C197.865 186.62 202.103 186.866 203.472 183.939L209.346 171.346L221.939 165.472C224.866 164.106 224.62 159.865 221.556 158.844L191.268 148.749Z" fill="#0B998D"/>
</svg>
