<svg width="54" height="34" viewBox="0 0 54 34" fill="none" xmlns="http://www.w3.org/2000/svg">
<g clip-path="url(#clip0_1_2944)">
<mask id="mask0_1_2944" style="mask-type:luminance" maskUnits="userSpaceOnUse" x="16" y="1" width="38" height="24">
<path d="M16.5601 1.65283H53.0171V24.4135H16.5601V1.65283Z" fill="white"/>
</mask>
<g mask="url(#mask0_1_2944)">
<path d="M52.8648 7.85156L49.2079 23.0475C49.2079 23.1937 49.1793 23.3335 49.1221 23.4669C49.065 23.6035 48.9855 23.7211 48.8839 23.8259C48.779 23.9276 48.6615 24.007 48.528 24.0642C48.3914 24.1214 48.2516 24.15 48.1055 24.15L23.4513 24.3279C23.3052 24.3279 23.1654 24.2993 23.0319 24.2421C22.8953 24.1881 22.7778 24.1087 22.6729 24.0038C22.5713 23.9022 22.4918 23.7815 22.4346 23.648C22.3806 23.5114 22.352 23.3716 22.3489 23.2255V7.84838C22.3489 7.81979 22.352 7.78801 22.3552 7.75942L22.0216 4.78249H18.3775C18.1742 4.77614 17.9836 4.72848 17.7993 4.64588C17.615 4.56328 17.453 4.4489 17.3132 4.30593C17.1734 4.15978 17.0654 3.9914 16.9891 3.80713C16.9161 3.61968 16.8779 3.4227 16.8779 3.22255C16.8779 3.01921 16.9161 2.82541 16.9891 2.63796C17.0654 2.45051 17.1734 2.28531 17.3132 2.13916C17.453 1.99619 17.615 1.88182 17.7993 1.79921C17.9836 1.71661 18.1742 1.66895 18.3775 1.6626H24.8079C24.8111 1.66577 24.8111 1.67213 24.8079 1.67848L25.1574 4.78567L25.3766 6.74911H51.7655C51.9116 6.74911 52.0514 6.7777 52.1849 6.83171C52.3215 6.8889 52.439 6.96833 52.5439 7.07317C52.6455 7.17484 52.725 7.29557 52.7822 7.429C52.8362 7.56562 52.8648 7.70541 52.8648 7.85156Z" fill="#00CCBB"/>
</g>
<path d="M30.0214 29.3254C30.0214 29.5891 29.996 29.8496 29.9452 30.107C29.8943 30.3675 29.8181 30.6185 29.7164 30.8631C29.6147 31.1046 29.4908 31.3365 29.3447 31.5557C29.1985 31.7749 29.0302 31.9783 28.8459 32.1657C28.6584 32.35 28.4551 32.5184 28.2359 32.6645C28.0167 32.8107 27.7847 32.9346 27.5433 33.0362C27.2987 33.1347 27.0477 33.211 26.7903 33.2618C26.5298 33.3158 26.2693 33.3412 26.0056 33.3412C25.7419 33.3412 25.4814 33.3158 25.224 33.2618C24.9635 33.211 24.7125 33.1347 24.4679 33.0362C24.2264 32.9346 23.9945 32.8107 23.7753 32.6645C23.556 32.5184 23.3527 32.35 23.1653 32.1657C22.981 31.9783 22.8126 31.7749 22.6665 31.5557C22.5203 31.3365 22.3964 31.1046 22.2947 30.8631C22.1963 30.6185 22.12 30.3675 22.066 30.107C22.0152 29.8496 21.9897 29.5891 21.9897 29.3254C21.9897 29.0617 22.0152 28.8012 22.066 28.5407C22.12 28.2833 22.1963 28.0323 22.2947 27.7877C22.3964 27.5462 22.5203 27.3143 22.6665 27.0951C22.8126 26.8759 22.981 26.6725 23.1653 26.4851C23.3527 26.2976 23.556 26.1324 23.7753 25.9863C23.9945 25.8401 24.2264 25.7162 24.4679 25.6146C24.7125 25.5129 24.9635 25.4367 25.224 25.3858C25.4814 25.335 25.7419 25.3096 26.0056 25.3096C26.2693 25.3096 26.5298 25.335 26.7903 25.3858C27.0477 25.4367 27.2987 25.5129 27.5433 25.6146C27.7847 25.7162 28.0167 25.8401 28.2359 25.9863C28.4551 26.1324 28.6584 26.2976 28.8459 26.4851C29.0302 26.6725 29.1985 26.8759 29.3447 27.0951C29.4908 27.3143 29.6147 27.5462 29.7164 27.7877C29.8181 28.0323 29.8943 28.2833 29.9452 28.5407C29.996 28.8012 30.0214 29.0617 30.0214 29.3254Z" fill="#00CCBB"/>
<path d="M41.3539 29.3254C41.3539 29.5891 41.3285 29.8496 41.2777 30.107C41.2268 30.3675 41.1506 30.6185 41.0489 30.8631C40.9473 31.1046 40.8234 31.3365 40.6772 31.5557C40.5311 31.7749 40.3659 31.9783 40.1784 32.1657C39.991 32.35 39.7876 32.5184 39.5684 32.6645C39.3492 32.8107 39.1204 32.9346 38.8758 33.0362C38.6312 33.1347 38.3802 33.211 38.1228 33.2618C37.8623 33.3158 37.6018 33.3412 37.3381 33.3412C37.0744 33.3412 36.8139 33.3158 36.5565 33.2618C36.296 33.211 36.045 33.1347 35.8036 33.0362C35.5589 32.9346 35.327 32.8107 35.1078 32.6645C34.8886 32.5184 34.6852 32.35 34.501 32.1657C34.3135 31.9783 34.1451 31.7749 33.999 31.5557C33.8528 31.3365 33.7289 31.1046 33.6304 30.8631C33.5288 30.6185 33.4525 30.3675 33.4017 30.107C33.3477 29.8496 33.3223 29.5891 33.3223 29.3254C33.3223 29.0617 33.3477 28.8012 33.4017 28.5407C33.4525 28.2833 33.5288 28.0323 33.6304 27.7877C33.7289 27.5462 33.8528 27.3143 33.999 27.0951C34.1451 26.8759 34.3135 26.6725 34.501 26.4851C34.6852 26.2976 34.8886 26.1324 35.1078 25.9863C35.327 25.8401 35.5589 25.7162 35.8036 25.6146C36.045 25.5129 36.296 25.4367 36.5565 25.3858C36.8139 25.335 37.0744 25.3096 37.3381 25.3096C37.6018 25.3096 37.8623 25.335 38.1228 25.3858C38.3802 25.4367 38.6312 25.5129 38.8758 25.6146C39.1204 25.7162 39.3492 25.8401 39.5684 25.9863C39.7876 26.1324 39.991 26.2976 40.1784 26.4851C40.3659 26.6725 40.5311 26.8759 40.6772 27.0951C40.8234 27.3143 40.9473 27.5462 41.0489 27.7877C41.1506 28.0323 41.2268 28.2833 41.2777 28.5407C41.3285 28.8012 41.3539 29.0617 41.3539 29.3254Z" fill="#00CCBB"/>
<path d="M10.4789 8.08643H19.6702C19.8132 8.08643 19.9498 8.11184 20.08 8.16903C20.2103 8.22304 20.3278 8.29929 20.4263 8.40096C20.528 8.49945 20.6042 8.617 20.6583 8.74726C20.7123 8.87752 20.7409 9.01413 20.7409 9.1571V9.42398C20.7409 9.56695 20.7123 9.70356 20.6583 9.83382C20.6042 9.96726 20.528 10.0816 20.4263 10.1833C20.3278 10.2818 20.2103 10.3612 20.08 10.4152C19.9498 10.4692 19.8132 10.4947 19.6702 10.4947H10.4789C10.3359 10.4947 10.1993 10.4692 10.069 10.4152C9.93878 10.3612 9.82122 10.2818 9.72273 10.1833C9.62107 10.0816 9.54482 9.96726 9.48763 9.83382C9.43362 9.70356 9.4082 9.56695 9.4082 9.42398V9.1571C9.4082 9.01413 9.43362 8.87752 9.48763 8.74726C9.54482 8.617 9.62107 8.49945 9.72273 8.40096C9.82122 8.29929 9.93878 8.22304 10.069 8.16903C10.1993 8.11184 10.3359 8.08643 10.4789 8.08643Z" fill="#00CCBB"/>
<path d="M10.4789 23.0791H19.6702C19.8132 23.0791 19.9498 23.1045 20.08 23.1585C20.2103 23.2125 20.3278 23.292 20.4263 23.3905C20.528 23.4921 20.6042 23.6065 20.6583 23.7399C20.7123 23.8702 20.7409 24.0068 20.7409 24.1498V24.4167C20.7409 24.5596 20.7123 24.6962 20.6583 24.8265C20.6042 24.9568 20.528 25.0743 20.4263 25.1728C20.3278 25.2745 20.2103 25.3507 20.08 25.4047C19.9498 25.4587 19.8132 25.4873 19.6702 25.4873H10.4789C10.3359 25.4873 10.1993 25.4587 10.069 25.4047C9.93878 25.3507 9.82122 25.2745 9.72273 25.1728C9.62107 25.0743 9.54482 24.9568 9.48763 24.8265C9.43362 24.6962 9.4082 24.5596 9.4082 24.4167V24.1498C9.4082 24.0068 9.43362 23.8702 9.48763 23.7399C9.54482 23.6065 9.62107 23.4921 9.72273 23.3905C9.82122 23.292 9.93878 23.2125 10.069 23.1585C10.1993 23.1045 10.3359 23.0791 10.4789 23.0791Z" fill="#00CCBB"/>
<mask id="mask1_1_2944" style="mask-type:luminance" maskUnits="userSpaceOnUse" x="-1" y="14" width="23" height="4">
<path d="M-0.0527344 14.6533H21.4402V17.9067H-0.0527344V14.6533Z" fill="white"/>
</mask>
<g mask="url(#mask1_1_2944)">
<path d="M1.15456 15.4033H19.5372C19.696 15.4033 19.8485 15.4351 19.9978 15.4955C20.144 15.5558 20.2742 15.6448 20.3886 15.756C20.4998 15.8704 20.5888 16.0006 20.6491 16.1468C20.7095 16.2961 20.7413 16.4486 20.7413 16.6074C20.7413 16.7695 20.7095 16.922 20.6491 17.0681C20.5888 17.2174 20.4998 17.3477 20.3886 17.4589C20.2742 17.5733 20.144 17.659 19.9978 17.7226C19.8485 17.783 19.696 17.8147 19.5372 17.8147H1.15456C0.992526 17.8147 0.840026 17.783 0.69388 17.7226C0.544557 17.659 0.414297 17.5733 0.303099 17.4589C0.188724 17.3477 0.102943 17.2174 0.039401 17.0681C-0.0209637 16.922 -0.0527344 16.7695 -0.0527344 16.6074C-0.0527344 16.4486 -0.0209637 16.2961 0.039401 16.1468C0.102943 16.0006 0.188724 15.8704 0.303099 15.756C0.414297 15.6448 0.544557 15.5558 0.69388 15.4955C0.840026 15.4351 0.992526 15.4033 1.15456 15.4033Z" fill="#00CCBB"/>
</g>
</g>
<defs>
<clipPath id="clip0_1_2944">
<rect width="54" height="34" fill="white"/>
</clipPath>
</defs>
</svg>
