<svg width="68" height="68" viewBox="0 0 68 68" fill="none" xmlns="http://www.w3.org/2000/svg">
<g clip-path="url(#clip0_1_143)">
<path d="M35.4014 21C35.7836 21 36.1255 21.2379 36.2542 21.5941L37.1719 24.1382C37.5004 24.2196 37.7838 24.3028 38.0221 24.3878C38.2821 24.4805 38.6201 24.6235 39.0361 24.8168L41.1732 23.6858C41.3475 23.5929 41.5473 23.5593 41.7424 23.5901C41.9376 23.6208 42.1174 23.7141 42.2547 23.8561L44.1345 25.7996C44.3841 26.0583 44.4543 26.4365 44.3139 26.7667L43.3116 29.1158C43.4771 29.4209 43.6106 29.6826 43.712 29.901C43.8212 30.1376 43.9564 30.4669 44.1176 30.889L46.4536 31.89C46.8046 32.0395 47.0217 32.3905 46.9983 32.7662L46.8267 35.4637C46.815 35.6389 46.752 35.8069 46.6457 35.9467C46.5394 36.0865 46.3944 36.192 46.2287 36.2502L44.0162 37.0366C43.9529 37.3417 43.8862 37.6043 43.816 37.8244C43.7024 38.1656 43.5731 38.5014 43.4286 38.8306L44.5401 41.2876C44.6191 41.4601 44.6406 41.6535 44.6013 41.8392C44.5619 42.0248 44.4639 42.1929 44.3217 42.3185L42.2079 44.2061C42.069 44.3304 41.8953 44.409 41.7102 44.4313C41.5251 44.4536 41.3377 44.4186 41.1732 44.3309L38.9945 43.1765C38.6539 43.3577 38.3022 43.517 37.9415 43.6536L36.9899 44.0098L36.145 46.3498C36.0817 46.5207 35.9686 46.6688 35.8203 46.7747C35.6719 46.8806 35.4952 46.9395 35.313 46.9439L32.8431 46.9998C32.6559 47.0041 32.472 46.9506 32.3164 46.8466C32.1608 46.7427 32.041 46.5932 31.9734 46.4187L30.9776 43.7836C30.638 43.6672 30.3016 43.5415 29.9689 43.4066C29.6968 43.2888 29.4289 43.1618 29.1655 43.0257L26.6956 44.0813C26.5329 44.151 26.3534 44.1718 26.1791 44.1411C26.0047 44.1104 25.8432 44.0295 25.7141 43.9084L23.8864 42.1937C23.7498 42.0669 23.6568 41.9002 23.6206 41.7174C23.5844 41.5346 23.6069 41.3451 23.6849 41.1758L24.7469 38.8618C24.6062 38.5875 24.4753 38.3083 24.3544 38.0246C24.2135 37.6773 24.0835 37.3257 23.9644 36.9703L21.6375 36.2619C21.4483 36.2047 21.2833 36.0867 21.1682 35.9261C21.053 35.7656 20.994 35.5715 21.0005 35.374L21.0915 32.8767C21.0982 32.7138 21.1492 32.5559 21.239 32.4198C21.3288 32.2838 21.454 32.1748 21.6011 32.1045L24.0424 30.9319C24.155 30.5176 24.2547 30.1935 24.3414 29.9595C24.464 29.6452 24.6002 29.3364 24.7495 29.0339L23.6914 26.7979C23.6105 26.6283 23.5858 26.4372 23.6208 26.2525C23.6559 26.0679 23.7489 25.8992 23.8864 25.771L25.7115 24.0472C25.8393 23.9262 25.9994 23.8449 26.1724 23.813C26.3455 23.7812 26.524 23.8002 26.6865 23.8678L29.1538 24.887C29.4259 24.7058 29.6738 24.5568 29.8974 24.4398C30.1634 24.2994 30.5205 24.1494 30.9685 23.99L31.8265 21.5967C31.8906 21.422 32.0067 21.2711 32.1592 21.1644C32.3116 21.0577 32.4932 21.0003 32.6793 21H35.4014ZM34.0312 30.1246C31.8642 30.1246 30.108 31.8601 30.108 34.0025C30.108 36.1449 31.8642 37.8816 34.0312 37.8816C36.1983 37.8816 37.9532 36.1449 37.9532 34.0025C37.9532 31.8601 36.1983 30.1246 34.0312 30.1246Z" fill="#00CCBB"/>
<path d="M61 34C61 48.9117 48.9117 61 34 61C19.0883 61 7 48.9117 7 34C7 19.0883 19.0883 7 34 7C48.9117 7 61 19.0883 61 34ZM11.5057 34C11.5057 46.4233 21.5767 56.4943 34 56.4943C46.4233 56.4943 56.4943 46.4233 56.4943 34C56.4943 21.5767 46.4233 11.5057 34 11.5057C21.5767 11.5057 11.5057 21.5767 11.5057 34Z" fill="#00CCBB"/>
<circle cx="34" cy="7" r="7" fill="#00CCBB" stroke="white" stroke-width="2"/>
<circle cx="61" cy="34" r="7" fill="#00CCBB" stroke="white" stroke-width="2"/>
<circle cx="7" cy="34" r="7" fill="#00CCBB" stroke="white" stroke-width="2"/>
<circle cx="34" cy="61" r="7" fill="#00CCBB" stroke="white" stroke-width="2"/>
</g>
<defs>
<clipPath id="clip0_1_143">
<rect width="68" height="68" fill="white"/>
</clipPath>
</defs>
</svg>
