<svg width="20" height="17" viewBox="0 0 20 17" fill="none" xmlns="http://www.w3.org/2000/svg">
<path d="M11.5625 17V11.588C11.5625 8.48939 12.2708 5.94257 13.6875 3.94756C15.1458 1.91011 17.25 0.594257 20 0V3.50187C18.6667 3.84145 17.625 4.47815 16.875 5.41198C16.125 6.30337 15.6667 7.40699 15.5 8.72285H18.75V17H11.5625ZM0 17V11.588C0 8.48939 0.708333 5.94257 2.125 3.94756C3.58333 1.91011 5.6875 0.594257 8.4375 0V3.50187C7.10417 3.84145 6.0625 4.47815 5.3125 5.41198C4.5625 6.30337 4.10417 7.40699 3.9375 8.72285H7.1875V17H0Z" fill="#010807"/>
</svg>
