<svg width="57" height="56" viewBox="0 0 57 56" fill="none" xmlns="http://www.w3.org/2000/svg">
<rect x="0.5" width="56" height="56" rx="28" fill="#00CCBB"/>
<path d="M35.1663 36C35.8736 36 36.5519 36.2809 37.052 36.781C37.5521 37.2811 37.833 37.9594 37.833 38.6667C37.833 39.3739 37.5521 40.0522 37.052 40.5523C36.5519 41.0524 35.8736 41.3333 35.1663 41.3333C34.4591 41.3333 33.7808 41.0524 33.2807 40.5523C32.7806 40.0522 32.4997 39.3739 32.4997 38.6667C32.4997 37.1867 33.6863 36 35.1663 36ZM13.833 14.6667H18.193L19.4463 17.3333H39.1663C39.52 17.3333 39.8591 17.4738 40.1091 17.7239C40.3592 17.9739 40.4997 18.313 40.4997 18.6667C40.4997 18.8933 40.433 19.12 40.3397 19.3333L35.5663 27.96C35.113 28.7733 34.233 29.3333 33.233 29.3333H23.2997L22.0997 31.5067L22.0597 31.6667C22.0597 31.7551 22.0948 31.8399 22.1573 31.9024C22.2198 31.9649 22.3046 32 22.393 32H37.833V34.6667H21.833C21.1258 34.6667 20.4475 34.3857 19.9474 33.8856C19.4473 33.3855 19.1663 32.7072 19.1663 32C19.1663 31.5333 19.2863 31.0933 19.4863 30.72L21.2997 27.4533L16.4997 17.3333H13.833V14.6667ZM21.833 36C22.5403 36 23.2185 36.2809 23.7186 36.781C24.2187 37.2811 24.4997 37.9594 24.4997 38.6667C24.4997 39.3739 24.2187 40.0522 23.7186 40.5523C23.2185 41.0524 22.5403 41.3333 21.833 41.3333C21.1258 41.3333 20.4475 41.0524 19.9474 40.5523C19.4473 40.0522 19.1663 39.3739 19.1663 38.6667C19.1663 37.1867 20.353 36 21.833 36ZM33.833 26.6667L37.5397 20H20.6863L23.833 26.6667H33.833Z" fill="white"/>
</svg>
