<svg width="60" height="60" viewBox="0 0 60 60" fill="none" xmlns="http://www.w3.org/2000/svg">
<path d="M54.5455 19.0889C55.9921 19.0889 57.3795 19.6636 58.4024 20.6866C59.4253 21.7096 60 23.097 60 24.5437V35.4533C60 36.9 59.4253 38.2875 58.4024 39.3105C57.3795 40.3335 55.9921 40.9082 54.5455 40.9082H51.6491C50.9848 46.1813 48.4187 51.0306 44.4326 54.5459C40.4466 58.0611 35.3146 60.0005 30 60V54.5452C34.3399 54.5452 38.5021 52.8211 41.5708 49.7522C44.6396 46.6832 46.3636 42.5209 46.3636 38.1807V21.8163C46.3636 17.4762 44.6396 13.3138 41.5708 10.2449C38.5021 7.17598 34.3399 5.45188 30 5.45188C25.6601 5.45188 21.4979 7.17598 18.4292 10.2449C15.3604 13.3138 13.6364 17.4762 13.6364 21.8163V40.9082H5.45455C4.00791 40.9082 2.62053 40.3335 1.5976 39.3105C0.574674 38.2875 0 36.9 0 35.4533V24.5437C0 23.097 0.574674 21.7096 1.5976 20.6866C2.62053 19.6636 4.00791 19.0889 5.45455 19.0889H8.35091C9.01645 13.8165 11.5829 8.96825 15.5688 5.45372C19.5547 1.93919 24.6861 0 30 0C35.3139 0 40.4453 1.93919 44.4312 5.45372C48.4171 8.96825 50.9836 13.8165 51.6491 19.0889H54.5455ZM18.4364 40.3218L21.3273 35.6961C23.9264 37.3247 26.9328 38.186 30 38.1807C33.0672 38.186 36.0736 37.3247 38.6727 35.6961L41.5636 40.3218C38.0982 42.4936 34.0897 43.6423 30 43.6356C25.9103 43.6423 21.9018 42.4936 18.4364 40.3218Z" fill="#00CCBB"/>
</svg>
