<svg width="32" height="32" viewBox="0 0 32 32" fill="none" xmlns="http://www.w3.org/2000/svg">
<rect width="32" height="32" rx="16" fill="#00CCBB"/>
<path d="M19.4284 20.2145C19.8451 20.2145 20.2448 20.3801 20.5395 20.6748C20.8342 20.9695 20.9998 21.3692 20.9998 21.7859C20.9998 22.2027 20.8342 22.6024 20.5395 22.8971C20.2448 23.1918 19.8451 23.3574 19.4284 23.3574C19.0116 23.3574 18.6119 23.1918 18.3172 22.8971C18.0225 22.6024 17.8569 22.2027 17.8569 21.7859C17.8569 20.9138 18.5562 20.2145 19.4284 20.2145ZM6.85693 7.64307H9.42622L10.1648 9.2145H21.7855C21.9939 9.2145 22.1937 9.29728 22.3411 9.44463C22.4884 9.59198 22.5712 9.79183 22.5712 10.0002C22.5712 10.1338 22.5319 10.2674 22.4769 10.3931L19.6641 15.4766C19.3969 15.9559 18.8784 16.2859 18.2891 16.2859H12.4355L11.7284 17.5666L11.7048 17.6609C11.7048 17.713 11.7255 17.763 11.7623 17.7998C11.7992 17.8367 11.8491 17.8574 11.9012 17.8574H20.9998V19.4288H11.5712C11.1545 19.4288 10.7548 19.2632 10.4601 18.9685C10.1654 18.6738 9.99979 18.2741 9.99979 17.8574C9.99979 17.5824 10.0705 17.3231 10.1884 17.1031L11.2569 15.1781L8.42836 9.2145H6.85693V7.64307ZM11.5712 20.2145C11.988 20.2145 12.3877 20.3801 12.6824 20.6748C12.9771 20.9695 13.1426 21.3692 13.1426 21.7859C13.1426 22.2027 12.9771 22.6024 12.6824 22.8971C12.3877 23.1918 11.988 23.3574 11.5712 23.3574C11.1545 23.3574 10.7548 23.1918 10.4601 22.8971C10.1654 22.6024 9.99979 22.2027 9.99979 21.7859C9.99979 20.9138 10.6991 20.2145 11.5712 20.2145ZM18.6426 14.7145L20.8269 10.7859H10.8955L12.7498 14.7145H18.6426Z" fill="white"/>
</svg>
