<svg width="275" height="22" viewBox="0 0 275 22" fill="none" xmlns="http://www.w3.org/2000/svg">
<path d="M6.804 18V15.312H1.124V13.744L6.724 6.08H8.596V13.744H10.244V15.312H8.596V18H6.804ZM2.516 14.432L2.212 13.744H6.804V7.584L7.316 7.744L2.516 14.432ZM12.6998 18V15.92H14.5398V18H12.6998ZM18.1666 18L22.2466 12.72L22.5666 12.928C22.4173 13.088 22.252 13.216 22.0706 13.312C21.9 13.408 21.7133 13.4773 21.5106 13.52C21.3186 13.5627 21.1106 13.584 20.8866 13.584C20.172 13.584 19.532 13.424 18.9666 13.104C18.4013 12.7733 17.9533 12.3253 17.6226 11.76C17.3026 11.184 17.1426 10.5333 17.1426 9.808C17.1426 9.05067 17.3186 8.37867 17.6706 7.792C18.0226 7.20533 18.5026 6.74133 19.1106 6.4C19.7186 6.05867 20.412 5.888 21.1906 5.888C21.98 5.888 22.6733 6.05867 23.2706 6.4C23.8786 6.74133 24.3533 7.21067 24.6946 7.808C25.0466 8.39467 25.2226 9.06667 25.2226 9.824C25.2226 10.2293 25.18 10.6293 25.0946 11.024C25.0093 11.4187 24.86 11.8293 24.6466 12.256C24.4333 12.672 24.1346 13.1307 23.7506 13.632L20.4226 18H18.1666ZM21.1906 12C21.6066 12 21.9746 11.904 22.2946 11.712C22.6146 11.52 22.8706 11.2587 23.0626 10.928C23.2546 10.5973 23.3506 10.2187 23.3506 9.792C23.3506 9.35467 23.2546 8.97067 23.0626 8.64C22.8706 8.29867 22.6093 8.03733 22.2786 7.856C21.9586 7.664 21.596 7.568 21.1906 7.568C20.7853 7.568 20.4173 7.664 20.0866 7.856C19.7666 8.03733 19.5106 8.29867 19.3186 8.64C19.1266 8.97067 19.0306 9.35467 19.0306 9.792C19.0306 10.2187 19.1213 10.5973 19.3026 10.928C19.4946 11.2587 19.756 11.52 20.0866 11.712C20.4173 11.904 20.7853 12 21.1906 12Z" fill="#010807"/>
<path d="M36.8393 19.2499L38.3288 12.8103L33.333 8.47908L39.933 7.90617L42.4997 1.83325L45.0663 7.90617L51.6663 8.47908L46.6705 12.8103L48.1601 19.2499L42.4997 15.8353L36.8393 19.2499Z" fill="#FFE920"/>
<path d="M58.8393 19.2499L60.3288 12.8103L55.333 8.47908L61.933 7.90617L64.4997 1.83325L67.0663 7.90617L73.6663 8.47908L68.6705 12.8103L70.1601 19.2499L64.4997 15.8353L58.8393 19.2499Z" fill="#FFE920"/>
<path d="M80.8393 19.2499L82.3288 12.8103L77.333 8.47908L83.933 7.90617L86.4997 1.83325L89.0663 7.90617L95.6663 8.47908L90.6705 12.8103L92.1601 19.2499L86.4997 15.8353L80.8393 19.2499Z" fill="#FFE920"/>
<path d="M102.839 19.2499L104.329 12.8103L99.333 8.47908L105.933 7.90617L108.5 1.83325L111.066 7.90617L117.666 8.47908L112.671 12.8103L114.16 19.2499L108.5 15.8353L102.839 19.2499Z" fill="#FFE920"/>
<path d="M124.839 19.2499L126.329 12.8103L121.333 8.47908L127.933 7.90617L130.5 1.83325L133.066 7.90617L139.666 8.47908L134.671 12.8103L136.16 19.2499L130.5 15.8353L124.839 19.2499Z" fill="#FFE920"/>
<path d="M153.278 17V10.854H151.878V9.426H153.278V9.034C153.278 8.46467 153.395 7.98867 153.628 7.606C153.861 7.214 154.183 6.91533 154.594 6.71C155.014 6.50467 155.495 6.402 156.036 6.402C156.139 6.402 156.255 6.41133 156.386 6.43C156.517 6.43933 156.624 6.45333 156.708 6.472V7.844C156.633 7.82533 156.549 7.816 156.456 7.816C156.363 7.80667 156.288 7.802 156.232 7.802C155.812 7.802 155.476 7.9 155.224 8.096C154.972 8.28267 154.846 8.59533 154.846 9.034V9.426H156.582V10.854H154.846V17H153.278ZM157.988 17V9.426H159.5V10.952L159.36 10.728C159.528 10.2333 159.799 9.87867 160.172 9.664C160.546 9.44 160.994 9.328 161.516 9.328H161.978V10.77H161.32C160.798 10.77 160.373 10.9333 160.046 11.26C159.729 11.5773 159.57 12.0347 159.57 12.632V17H157.988ZM166.715 17.168C165.987 17.168 165.319 16.9953 164.713 16.65C164.115 16.3047 163.639 15.8333 163.285 15.236C162.93 14.6387 162.753 13.962 162.753 13.206C162.753 12.4407 162.93 11.764 163.285 11.176C163.639 10.5787 164.115 10.112 164.713 9.776C165.31 9.43067 165.977 9.258 166.715 9.258C167.461 9.258 168.129 9.43067 168.717 9.776C169.314 10.112 169.785 10.5787 170.131 11.176C170.485 11.764 170.663 12.4407 170.663 13.206C170.663 13.9713 170.485 14.6527 170.131 15.25C169.776 15.8473 169.3 16.3187 168.703 16.664C168.105 17 167.443 17.168 166.715 17.168ZM166.715 15.698C167.163 15.698 167.559 15.5907 167.905 15.376C168.25 15.1613 168.521 14.8673 168.717 14.494C168.922 14.1113 169.025 13.682 169.025 13.206C169.025 12.73 168.922 12.3053 168.717 11.932C168.521 11.5587 168.25 11.2647 167.905 11.05C167.559 10.8353 167.163 10.728 166.715 10.728C166.276 10.728 165.879 10.8353 165.525 11.05C165.179 11.2647 164.904 11.5587 164.699 11.932C164.503 12.3053 164.405 12.73 164.405 13.206C164.405 13.682 164.503 14.1113 164.699 14.494C164.904 14.8673 165.179 15.1613 165.525 15.376C165.879 15.5907 166.276 15.698 166.715 15.698ZM172.207 17V9.426H173.719V11.064L173.523 10.812C173.682 10.2987 173.971 9.91133 174.391 9.65C174.811 9.38867 175.292 9.258 175.833 9.258C176.44 9.258 176.977 9.42133 177.443 9.748C177.919 10.0653 178.237 10.49 178.395 11.022L177.947 11.064C178.171 10.4573 178.512 10.0047 178.969 9.706C179.436 9.40733 179.968 9.258 180.565 9.258C181.088 9.258 181.559 9.37933 181.979 9.622C182.409 9.86467 182.749 10.2007 183.001 10.63C183.253 11.0593 183.379 11.5493 183.379 12.1V17H181.797V12.534C181.797 12.1513 181.727 11.8293 181.587 11.568C181.457 11.2973 181.27 11.092 181.027 10.952C180.794 10.8027 180.519 10.728 180.201 10.728C179.884 10.728 179.604 10.8027 179.361 10.952C179.119 11.092 178.927 11.2973 178.787 11.568C178.647 11.8387 178.577 12.1607 178.577 12.534V17H177.009V12.534C177.009 12.1513 176.939 11.8293 176.799 11.568C176.669 11.2973 176.482 11.092 176.239 10.952C176.006 10.8027 175.726 10.728 175.399 10.728C175.082 10.728 174.802 10.8027 174.559 10.952C174.317 11.092 174.125 11.2973 173.985 11.568C173.855 11.8387 173.789 12.1607 173.789 12.534V17H172.207ZM189.06 17V7.97H187.058V6.57H190.698V17H189.06ZM197.104 17.168C196.273 17.168 195.545 16.944 194.92 16.496C194.295 16.0387 193.805 15.4087 193.45 14.606C193.105 13.794 192.932 12.8513 192.932 11.778C192.932 10.6953 193.105 9.75267 193.45 8.95C193.805 8.14733 194.29 7.522 194.906 7.074C195.531 6.626 196.259 6.402 197.09 6.402C197.921 6.402 198.644 6.626 199.26 7.074C199.885 7.522 200.371 8.152 200.716 8.964C201.071 9.76667 201.248 10.7047 201.248 11.778C201.248 12.8513 201.075 13.794 200.73 14.606C200.385 15.4087 199.899 16.0387 199.274 16.496C198.658 16.944 197.935 17.168 197.104 17.168ZM197.104 15.656C197.617 15.656 198.061 15.4973 198.434 15.18C198.807 14.8627 199.097 14.4147 199.302 13.836C199.507 13.2573 199.61 12.5713 199.61 11.778C199.61 10.9847 199.507 10.2987 199.302 9.72C199.097 9.14133 198.807 8.69333 198.434 8.376C198.061 8.05867 197.613 7.9 197.09 7.9C196.577 7.9 196.133 8.05867 195.76 8.376C195.387 8.69333 195.097 9.14133 194.892 9.72C194.687 10.2987 194.584 10.9847 194.584 11.778C194.584 12.562 194.687 13.248 194.892 13.836C195.097 14.4147 195.387 14.8627 195.76 15.18C196.143 15.4973 196.591 15.656 197.104 15.656ZM203.024 17V6.402H204.606V13.5L203.99 13.346L207.784 9.426H209.758L206.902 12.464L209.884 17H208.064L205.404 12.982L206.342 12.856L204.102 15.236L204.606 14.186V17H203.024ZM213.851 17V14.186H211.037V12.786H213.851V10H215.251V12.786H218.037V14.186H215.251V17H213.851ZM222.397 17V9.426H223.909V10.952L223.769 10.728C223.937 10.2333 224.207 9.87867 224.581 9.664C224.954 9.44 225.402 9.328 225.925 9.328H226.387V10.77H225.729C225.206 10.77 224.781 10.9333 224.455 11.26C224.137 11.5773 223.979 12.0347 223.979 12.632V17H222.397ZM231.025 17.168C230.269 17.168 229.597 16.9953 229.009 16.65C228.43 16.2953 227.978 15.8193 227.651 15.222C227.324 14.6153 227.161 13.9387 227.161 13.192C227.161 12.4267 227.324 11.75 227.651 11.162C227.987 10.574 228.435 10.112 228.995 9.776C229.555 9.43067 230.19 9.258 230.899 9.258C231.468 9.258 231.977 9.356 232.425 9.552C232.873 9.748 233.251 10.0187 233.559 10.364C233.867 10.7 234.1 11.0873 234.259 11.526C234.427 11.9647 234.511 12.4313 234.511 12.926C234.511 13.0473 234.506 13.1733 234.497 13.304C234.488 13.4347 234.469 13.556 234.441 13.668H228.407V12.408H233.545L232.789 12.982C232.882 12.5247 232.85 12.1187 232.691 11.764C232.542 11.4 232.308 11.1153 231.991 10.91C231.683 10.6953 231.319 10.588 230.899 10.588C230.479 10.588 230.106 10.6953 229.779 10.91C229.452 11.1153 229.2 11.414 229.023 11.806C228.846 12.1887 228.776 12.6553 228.813 13.206C228.766 13.7193 228.836 14.1673 229.023 14.55C229.219 14.9327 229.49 15.2313 229.835 15.446C230.19 15.6607 230.591 15.768 231.039 15.768C231.496 15.768 231.884 15.6653 232.201 15.46C232.528 15.2547 232.784 14.9887 232.971 14.662L234.259 15.292C234.11 15.6467 233.876 15.9687 233.559 16.258C233.251 16.538 232.878 16.762 232.439 16.93C232.01 17.0887 231.538 17.168 231.025 17.168ZM238.116 17L235.148 9.426H236.87L239.152 15.6H238.522L240.804 9.426H242.54L239.558 17H238.116ZM243.615 17V9.426H245.197V17H243.615ZM243.615 8.39V6.57H245.197V8.39H243.615ZM250.603 17.168C249.847 17.168 249.175 16.9953 248.587 16.65C248.008 16.2953 247.556 15.8193 247.229 15.222C246.902 14.6153 246.739 13.9387 246.739 13.192C246.739 12.4267 246.902 11.75 247.229 11.162C247.565 10.574 248.013 10.112 248.573 9.776C249.133 9.43067 249.768 9.258 250.477 9.258C251.046 9.258 251.555 9.356 252.003 9.552C252.451 9.748 252.829 10.0187 253.137 10.364C253.445 10.7 253.678 11.0873 253.837 11.526C254.005 11.9647 254.089 12.4313 254.089 12.926C254.089 13.0473 254.084 13.1733 254.075 13.304C254.066 13.4347 254.047 13.556 254.019 13.668H247.985V12.408H253.123L252.367 12.982C252.46 12.5247 252.428 12.1187 252.269 11.764C252.12 11.4 251.886 11.1153 251.569 10.91C251.261 10.6953 250.897 10.588 250.477 10.588C250.057 10.588 249.684 10.6953 249.357 10.91C249.03 11.1153 248.778 11.414 248.601 11.806C248.424 12.1887 248.354 12.6553 248.391 13.206C248.344 13.7193 248.414 14.1673 248.601 14.55C248.797 14.9327 249.068 15.2313 249.413 15.446C249.768 15.6607 250.169 15.768 250.617 15.768C251.074 15.768 251.462 15.6653 251.779 15.46C252.106 15.2547 252.362 14.9887 252.549 14.662L253.837 15.292C253.688 15.6467 253.454 15.9687 253.137 16.258C252.829 16.538 252.456 16.762 252.017 16.93C251.588 17.0887 251.116 17.168 250.603 17.168ZM257.467 17L254.863 9.426H256.543L258.531 15.46H257.943L259.973 9.426H261.415L263.431 15.46H262.843L264.845 9.426H266.525L263.907 17H262.479L260.435 10.826H260.953L258.909 17H257.467ZM270.41 17.168C269.635 17.168 268.954 16.9767 268.366 16.594C267.787 16.2113 267.381 15.698 267.148 15.054L268.366 14.48C268.571 14.9093 268.851 15.25 269.206 15.502C269.57 15.754 269.971 15.88 270.41 15.88C270.783 15.88 271.086 15.796 271.32 15.628C271.553 15.46 271.67 15.2313 271.67 14.942C271.67 14.7553 271.618 14.606 271.516 14.494C271.413 14.3727 271.282 14.2747 271.124 14.2C270.974 14.1253 270.82 14.0693 270.662 14.032L269.472 13.696C268.818 13.5093 268.328 13.2293 268.002 12.856C267.684 12.4733 267.526 12.03 267.526 11.526C267.526 11.0687 267.642 10.672 267.876 10.336C268.109 9.99067 268.431 9.72467 268.842 9.538C269.252 9.35133 269.714 9.258 270.228 9.258C270.918 9.258 271.534 9.43067 272.076 9.776C272.617 10.112 273 10.5833 273.224 11.19L272.006 11.764C271.856 11.4 271.618 11.1107 271.292 10.896C270.974 10.6813 270.615 10.574 270.214 10.574C269.868 10.574 269.593 10.658 269.388 10.826C269.182 10.9847 269.08 11.1947 269.08 11.456C269.08 11.6333 269.126 11.7827 269.22 11.904C269.313 12.016 269.434 12.1093 269.584 12.184C269.733 12.2493 269.887 12.3053 270.046 12.352L271.278 12.716C271.903 12.8933 272.384 13.1733 272.72 13.556C273.056 13.9293 273.224 14.3773 273.224 14.9C273.224 15.348 273.102 15.7447 272.86 16.09C272.626 16.426 272.3 16.692 271.88 16.888C271.46 17.0747 270.97 17.168 270.41 17.168Z" fill="#6F6A7C"/>
</svg>
