<svg width="305" height="34" viewBox="0 0 305 34" fill="none" xmlns="http://www.w3.org/2000/svg">
<path d="M115.383 24.5427C113.146 24.5427 111.243 24.3806 109.677 24.0598C108.117 23.7293 106.932 23.132 106.118 22.2679C105.305 21.3974 104.898 20.1519 104.898 18.5316H110.998C110.998 18.7953 111.113 19.0273 111.342 19.2306C111.577 19.4339 112.028 19.5928 112.689 19.7008C113.356 19.812 114.331 19.866 115.612 19.866C116.813 19.866 117.712 19.8406 118.306 19.7898C118.897 19.7326 119.287 19.6373 119.475 19.5102C119.669 19.3831 119.767 19.2179 119.767 19.0145C119.767 18.7858 119.666 18.6142 119.462 18.4935C119.265 18.376 118.855 18.2902 118.229 18.2393C117.61 18.1821 116.66 18.1345 115.383 18.0995C112.908 18.0233 110.922 17.8168 109.423 17.4768C107.923 17.1305 106.833 16.5873 106.157 15.8502C105.477 15.1067 105.14 14.0964 105.14 12.8256C105.14 11.021 105.998 9.71204 107.72 8.89871C109.438 8.08538 111.913 7.67871 115.141 7.67871C117.283 7.67871 119.097 7.86616 120.581 8.23788C122.061 8.61277 123.192 9.21642 123.974 10.0552C124.762 10.8939 125.156 12.0186 125.156 13.4229H119.056C119.056 12.9844 118.693 12.6985 117.975 12.5714C117.264 12.438 116.161 12.3681 114.671 12.3681C113.721 12.3681 113 12.3903 112.511 12.4316C112.018 12.4666 111.678 12.5396 111.494 12.6477C111.316 12.7589 111.227 12.9209 111.227 13.1306C111.227 13.3339 111.323 13.4864 111.519 13.5881C111.713 13.6834 112.107 13.7469 112.701 13.7787C113.302 13.8041 114.195 13.8391 115.383 13.8804C117 13.9503 118.452 14.0519 119.742 14.1854C121.038 14.3125 122.137 14.5412 123.046 14.8716C123.951 15.202 124.647 15.685 125.13 16.3204C125.613 16.9494 125.854 17.8009 125.854 18.8748C125.854 20.3743 125.448 21.5371 124.634 22.3568C123.821 23.1797 122.633 23.7516 121.076 24.0725C119.526 24.3838 117.626 24.5427 115.383 24.5427Z" fill="#00CCBB"/>
<path d="M126.56 24.3142V7.90771H132.647V13.5375H142.254V7.90771H148.354V24.3142H142.254V18.6844H132.647V24.3142H126.56Z" fill="#00CCBB"/>
<path d="M159.37 24.5427C155.761 24.5427 153.137 23.8501 151.503 22.4585C149.867 21.0701 149.051 18.9478 149.051 16.0916C149.051 13.245 149.867 11.1322 151.503 9.75017C153.137 8.37132 155.761 7.67871 159.37 7.67871C162.96 7.67871 165.575 8.37132 167.211 9.75017C168.854 11.1322 169.676 13.245 169.676 16.0916C169.676 18.9319 168.854 21.0479 167.211 22.4458C165.575 23.8437 162.96 24.5427 159.37 24.5427ZM159.37 19.3958C160.571 19.3958 161.473 19.2401 162.077 18.9256C162.677 18.6142 163.081 18.2076 163.284 17.7056C163.487 17.2068 163.589 16.6699 163.589 16.0916C163.589 15.5166 163.487 14.9828 163.284 14.4904C163.081 13.9916 162.677 13.5881 162.077 13.2831C161.473 12.9781 160.571 12.8256 159.37 12.8256C158.166 12.8256 157.264 12.9781 156.663 13.2831C156.059 13.5881 155.659 13.9916 155.456 14.4904C155.252 14.9828 155.151 15.5166 155.151 16.0916C155.151 16.6699 155.252 17.21 155.456 17.7183C155.659 18.2266 156.066 18.6333 156.676 18.9383C157.286 19.2433 158.182 19.3958 159.37 19.3958Z" fill="#00CCBB"/>
<path d="M170.384 24.3142V7.90771H183.27C184.522 7.90771 185.615 8.18094 186.549 8.72105C187.489 9.2548 188.22 9.99824 188.747 10.945C189.281 11.895 189.548 12.9752 189.548 14.1856C189.548 15.4056 189.281 16.4922 188.747 17.439C188.22 18.3794 187.489 19.1228 186.549 19.6629C185.615 20.2062 184.522 20.4763 183.27 20.4763H176.471V24.3142H170.384ZM176.471 15.3167H182.101C182.304 15.3167 182.511 15.304 182.724 15.2785C182.933 15.2468 183.108 15.1515 183.245 14.999C183.388 14.8401 183.461 14.5669 183.461 14.1856C183.461 13.8139 183.388 13.5502 183.245 13.3977C183.108 13.2389 182.933 13.1435 182.724 13.1181C182.511 13.0864 182.304 13.0673 182.101 13.0673H176.471V15.3167Z" fill="#00CCBB"/>
<path d="M193.388 23.9607V7.5542H206.274C207.526 7.5542 208.619 7.82743 209.553 8.36753C210.493 8.90128 211.224 9.64472 211.751 10.5915C212.285 11.5414 212.552 12.6216 212.552 13.8321C212.552 15.0267 212.291 16.1006 211.777 17.0473C211.268 17.9877 210.56 18.7216 209.654 19.2459L212.552 23.9607H205.334L203.059 20.1227H199.475V23.9607H193.388ZM199.475 14.9632H205.105C205.308 14.9632 205.515 14.9504 205.727 14.925C205.937 14.8933 206.112 14.7979 206.249 14.6454C206.391 14.4866 206.465 14.2134 206.465 13.8321C206.465 13.4604 206.391 13.1967 206.249 13.0442C206.112 12.8853 205.937 12.79 205.727 12.7646C205.515 12.7328 205.308 12.7138 205.105 12.7138H199.475V14.9632Z" fill="#00CCBB"/>
<path d="M213.261 23.9607V7.5542H230.595V12.2436H219.348V13.7686H230.595V17.7463H219.348V19.2713H230.595V23.9607H213.261Z" fill="#00CCBB"/>
<path d="M231.306 23.9607V7.5542H244.192C245.444 7.5542 246.537 7.82743 247.471 8.36753C248.411 8.90128 249.142 9.64472 249.669 10.5915C250.203 11.5414 250.47 12.6216 250.47 13.8321C250.47 15.0521 250.203 16.1387 249.669 17.0854C249.142 18.0259 248.411 18.7693 247.471 19.3094C246.537 19.8527 245.444 20.1227 244.192 20.1227H237.393V23.9607H231.306ZM237.393 14.9632H243.023C243.226 14.9632 243.433 14.9504 243.645 14.925C243.855 14.8933 244.03 14.7979 244.166 14.6454C244.309 14.4866 244.383 14.2134 244.383 13.8321C244.383 13.4604 244.309 13.1967 244.166 13.0442C244.03 12.8853 243.855 12.79 243.645 12.7646C243.433 12.7328 243.226 12.7138 243.023 12.7138H237.393V14.9632Z" fill="#00CCBB"/>
<mask id="mask0_1_18" style="mask-type:luminance" maskUnits="userSpaceOnUse" x="58" y="1" width="38" height="24">
<path d="M58.5605 1.65283H95.0176V24.4135H58.5605V1.65283Z" fill="white"/>
</mask>
<g mask="url(#mask0_1_18)">
<path d="M94.8648 7.85156L91.2079 23.0475C91.2079 23.1937 91.1793 23.3335 91.1221 23.4669C91.065 23.6035 90.9855 23.7211 90.8839 23.8259C90.779 23.9276 90.6615 24.007 90.528 24.0642C90.3914 24.1214 90.2516 24.15 90.1055 24.15L65.4513 24.3279C65.3052 24.3279 65.1654 24.2993 65.0319 24.2421C64.8953 24.1881 64.7778 24.1087 64.6729 24.0038C64.5713 23.9022 64.4918 23.7815 64.4346 23.648C64.3806 23.5114 64.352 23.3716 64.3489 23.2255V7.84838C64.3489 7.81979 64.352 7.78801 64.3552 7.75942L64.0216 4.78249H60.3775C60.1742 4.77614 59.9836 4.72848 59.7993 4.64588C59.615 4.56328 59.453 4.4489 59.3132 4.30593C59.1734 4.15978 59.0654 3.9914 58.9891 3.80713C58.9161 3.61968 58.8779 3.4227 58.8779 3.22255C58.8779 3.01921 58.9161 2.82541 58.9891 2.63796C59.0654 2.45051 59.1734 2.28531 59.3132 2.13916C59.453 1.99619 59.615 1.88182 59.7993 1.79921C59.9836 1.71661 60.1742 1.66895 60.3775 1.6626H66.8079C66.8111 1.66577 66.8111 1.67213 66.8079 1.67848L67.1574 4.78567L67.3766 6.74911H93.7655C93.9116 6.74911 94.0514 6.7777 94.1849 6.83171C94.3215 6.8889 94.439 6.96833 94.5439 7.07317C94.6455 7.17484 94.725 7.29557 94.7822 7.429C94.8362 7.56562 94.8648 7.70541 94.8648 7.85156Z" fill="#00CCBB"/>
</g>
<path d="M72.0219 29.3254C72.0219 29.5891 71.9965 29.8496 71.9457 30.107C71.8948 30.3675 71.8186 30.6185 71.7169 30.8631C71.6152 31.1046 71.4913 31.3365 71.3452 31.5557C71.199 31.7749 71.0307 31.9783 70.8464 32.1657C70.6589 32.35 70.4556 32.5184 70.2364 32.6645C70.0172 32.8107 69.7852 32.9346 69.5438 33.0362C69.2991 33.1347 69.0482 33.211 68.7908 33.2618C68.5303 33.3158 68.2698 33.3412 68.0061 33.3412C67.7424 33.3412 67.4818 33.3158 67.2245 33.2618C66.964 33.211 66.713 33.1347 66.4684 33.0362C66.2269 32.9346 65.995 32.8107 65.7758 32.6645C65.5565 32.5184 65.3532 32.35 65.1658 32.1657C64.9815 31.9783 64.8131 31.7749 64.667 31.5557C64.5208 31.3365 64.3969 31.1046 64.2952 30.8631C64.1967 30.6185 64.1205 30.3675 64.0665 30.107C64.0157 29.8496 63.9902 29.5891 63.9902 29.3254C63.9902 29.0617 64.0157 28.8012 64.0665 28.5407C64.1205 28.2833 64.1967 28.0323 64.2952 27.7877C64.3969 27.5462 64.5208 27.3143 64.667 27.0951C64.8131 26.8759 64.9815 26.6725 65.1658 26.4851C65.3532 26.2976 65.5565 26.1324 65.7758 25.9863C65.995 25.8401 66.2269 25.7162 66.4684 25.6146C66.713 25.5129 66.964 25.4367 67.2245 25.3858C67.4818 25.335 67.7424 25.3096 68.0061 25.3096C68.2698 25.3096 68.5303 25.335 68.7908 25.3858C69.0482 25.4367 69.2991 25.5129 69.5438 25.6146C69.7852 25.7162 70.0172 25.8401 70.2364 25.9863C70.4556 26.1324 70.6589 26.2976 70.8464 26.4851C71.0307 26.6725 71.199 26.8759 71.3452 27.0951C71.4913 27.3143 71.6152 27.5462 71.7169 27.7877C71.8186 28.0323 71.8948 28.2833 71.9457 28.5407C71.9965 28.8012 72.0219 29.0617 72.0219 29.3254Z" fill="#00CCBB"/>
<path d="M83.3539 29.3254C83.3539 29.5891 83.3285 29.8496 83.2777 30.107C83.2268 30.3675 83.1506 30.6185 83.0489 30.8631C82.9473 31.1046 82.8234 31.3365 82.6772 31.5557C82.5311 31.7749 82.3659 31.9783 82.1784 32.1657C81.991 32.35 81.7876 32.5184 81.5684 32.6645C81.3492 32.8107 81.1204 32.9346 80.8758 33.0362C80.6312 33.1347 80.3802 33.211 80.1228 33.2618C79.8623 33.3158 79.6018 33.3412 79.3381 33.3412C79.0744 33.3412 78.8139 33.3158 78.5565 33.2618C78.296 33.211 78.045 33.1347 77.8036 33.0362C77.5589 32.9346 77.327 32.8107 77.1078 32.6645C76.8886 32.5184 76.6852 32.35 76.501 32.1657C76.3135 31.9783 76.1451 31.7749 75.999 31.5557C75.8528 31.3365 75.7289 31.1046 75.6304 30.8631C75.5288 30.6185 75.4525 30.3675 75.4017 30.107C75.3477 29.8496 75.3223 29.5891 75.3223 29.3254C75.3223 29.0617 75.3477 28.8012 75.4017 28.5407C75.4525 28.2833 75.5288 28.0323 75.6304 27.7877C75.7289 27.5462 75.8528 27.3143 75.999 27.0951C76.1451 26.8759 76.3135 26.6725 76.501 26.4851C76.6852 26.2976 76.8886 26.1324 77.1078 25.9863C77.327 25.8401 77.5589 25.7162 77.8036 25.6146C78.045 25.5129 78.296 25.4367 78.5565 25.3858C78.8139 25.335 79.0744 25.3096 79.3381 25.3096C79.6018 25.3096 79.8623 25.335 80.1228 25.3858C80.3802 25.4367 80.6312 25.5129 80.8758 25.6146C81.1204 25.7162 81.3492 25.8401 81.5684 25.9863C81.7876 26.1324 81.991 26.2976 82.1784 26.4851C82.3659 26.6725 82.5311 26.8759 82.6772 27.0951C82.8234 27.3143 82.9473 27.5462 83.0489 27.7877C83.1506 28.0323 83.2268 28.2833 83.2777 28.5407C83.3285 28.8012 83.3539 29.0617 83.3539 29.3254Z" fill="#00CCBB"/>
<path d="M52.4789 8.08643H61.6702C61.8132 8.08643 61.9498 8.11184 62.08 8.16903C62.2103 8.22304 62.3278 8.29929 62.4263 8.40096C62.528 8.49945 62.6042 8.617 62.6583 8.74726C62.7123 8.87752 62.7409 9.01413 62.7409 9.1571V9.42398C62.7409 9.56695 62.7123 9.70356 62.6583 9.83382C62.6042 9.96726 62.528 10.0816 62.4263 10.1833C62.3278 10.2818 62.2103 10.3612 62.08 10.4152C61.9498 10.4692 61.8132 10.4947 61.6702 10.4947H52.4789C52.3359 10.4947 52.1993 10.4692 52.069 10.4152C51.9388 10.3612 51.8212 10.2818 51.7227 10.1833C51.6211 10.0816 51.5448 9.96726 51.4876 9.83382C51.4336 9.70356 51.4082 9.56695 51.4082 9.42398V9.1571C51.4082 9.01413 51.4336 8.87752 51.4876 8.74726C51.5448 8.617 51.6211 8.49945 51.7227 8.40096C51.8212 8.29929 51.9388 8.22304 52.069 8.16903C52.1993 8.11184 52.3359 8.08643 52.4789 8.08643Z" fill="#00CCBB"/>
<path d="M52.4789 23.0791H61.6702C61.8132 23.0791 61.9498 23.1045 62.08 23.1585C62.2103 23.2125 62.3278 23.292 62.4263 23.3905C62.528 23.4921 62.6042 23.6065 62.6583 23.7399C62.7123 23.8702 62.7409 24.0068 62.7409 24.1498V24.4167C62.7409 24.5596 62.7123 24.6962 62.6583 24.8265C62.6042 24.9568 62.528 25.0743 62.4263 25.1728C62.3278 25.2745 62.2103 25.3507 62.08 25.4047C61.9498 25.4587 61.8132 25.4873 61.6702 25.4873H52.4789C52.3359 25.4873 52.1993 25.4587 52.069 25.4047C51.9388 25.3507 51.8212 25.2745 51.7227 25.1728C51.6211 25.0743 51.5448 24.9568 51.4876 24.8265C51.4336 24.6962 51.4082 24.5596 51.4082 24.4167V24.1498C51.4082 24.0068 51.4336 23.8702 51.4876 23.7399C51.5448 23.6065 51.6211 23.4921 51.7227 23.3905C51.8212 23.292 51.9388 23.2125 52.069 23.1585C52.1993 23.1045 52.3359 23.0791 52.4789 23.0791Z" fill="#00CCBB"/>
<mask id="mask1_1_18" style="mask-type:luminance" maskUnits="userSpaceOnUse" x="41" y="14" width="23" height="4">
<path d="M41.9473 14.6533H63.4402V17.9067H41.9473V14.6533Z" fill="white"/>
</mask>
<g mask="url(#mask1_1_18)">
<path d="M43.1546 15.4033H61.5372C61.696 15.4033 61.8485 15.4351 61.9978 15.4955C62.144 15.5558 62.2742 15.6448 62.3886 15.756C62.4998 15.8704 62.5888 16.0006 62.6491 16.1468C62.7095 16.2961 62.7413 16.4486 62.7413 16.6074C62.7413 16.7695 62.7095 16.922 62.6491 17.0681C62.5888 17.2174 62.4998 17.3477 62.3886 17.4589C62.2742 17.5733 62.144 17.659 61.9978 17.7226C61.8485 17.783 61.696 17.8147 61.5372 17.8147H43.1546C42.9925 17.8147 42.84 17.783 42.6939 17.7226C42.5446 17.659 42.4143 17.5733 42.3031 17.4589C42.1887 17.3477 42.1029 17.2174 42.0394 17.0681C41.979 16.922 41.9473 16.7695 41.9473 16.6074C41.9473 16.4486 41.979 16.2961 42.0394 16.1468C42.1029 16.0006 42.1887 15.8704 42.3031 15.756C42.4143 15.6448 42.5446 15.5558 42.6939 15.4955C42.84 15.4351 42.9925 15.4033 43.1546 15.4033Z" fill="#00CCBB"/>
</g>
</svg>
