<svg width="56" height="60" viewBox="0 0 56 60" fill="none" xmlns="http://www.w3.org/2000/svg">
<path d="M42.9968 1.49691C42.1667 2.32708 42.1667 3.66158 42.1667 6.33341V43.1667C42.1667 45.8386 42.1667 47.1731 42.9968 48.0033C43.827 48.8334 45.1615 48.8334 47.8333 48.8334C50.5052 48.8334 51.8397 48.8334 52.6698 48.0033C53.5 47.1731 53.5 45.8386 53.5 43.1667V6.33341C53.5 3.66158 53.5 2.32708 52.6698 1.49691C51.8397 0.666748 50.5052 0.666748 47.8333 0.666748C45.1615 0.666748 43.827 0.666748 42.9968 1.49691ZM22.3333 14.8334C22.3333 12.1616 22.3333 10.8271 23.1635 9.99691C23.9937 9.16675 25.3282 9.16675 28 9.16675C30.6718 9.16675 32.0063 9.16675 32.8365 9.99691C33.6667 10.8271 33.6667 12.1616 33.6667 14.8334V43.1667C33.6667 45.8386 33.6667 47.1731 32.8365 48.0033C32.0063 48.8334 30.6718 48.8334 28 48.8334C25.3282 48.8334 23.9937 48.8334 23.1635 48.0033C22.3333 47.1731 22.3333 45.8386 22.3333 43.1667V14.8334ZM3.33017 21.3302C2.5 22.1604 2.5 23.4949 2.5 26.1667V43.1667C2.5 45.8386 2.5 47.1731 3.33017 48.0033C4.16033 48.8334 5.49483 48.8334 8.16667 48.8334C10.8385 48.8334 12.173 48.8334 13.0032 48.0033C13.8333 47.1731 13.8333 45.8386 13.8333 43.1667V26.1667C13.8333 23.4949 13.8333 22.1604 13.0032 21.3302C12.173 20.5001 10.8385 20.5001 8.16667 20.5001C5.49483 20.5001 4.16033 20.5001 3.33017 21.3302ZM2.5 55.2084C1.93641 55.2084 1.39591 55.4323 0.997398 55.8308C0.598883 56.2293 0.375 56.7698 0.375 57.3334C0.375 57.897 0.598883 58.4375 0.997398 58.836C1.39591 59.2345 1.93641 59.4584 2.5 59.4584H53.5C54.0636 59.4584 54.6041 59.2345 55.0026 58.836C55.4011 58.4375 55.625 57.897 55.625 57.3334C55.625 56.7698 55.4011 56.2293 55.0026 55.8308C54.6041 55.4323 54.0636 55.2084 53.5 55.2084H2.5Z" fill="#00CCBB"/>
</svg>
